<svg id="visual" viewBox="0 0 900 600" width="900" height="600" xmlns="http://www.w3.org/2000/svg" xmlns:xlink="http://www.w3.org/1999/xlink" version="1.1"><rect x="0" y="0" width="900" height="600" fill="#fff"></rect><path d="M0 349L225 467L450 379L675 379L900 311L900 601L675 601L450 601L225 601L0 601Z" fill="#dcecf9"></path><path d="M0 433L225 413L450 450L675 408L900 382L900 601L675 601L450 601L225 601L0 601Z" fill="#cfe7fa"></path><path d="M0 473L225 481L450 498L675 400L900 526L900 601L675 601L450 601L225 601L0 601Z" fill="#c2e2fb"></path><path d="M0 481L225 553L450 452L675 534L900 452L900 601L675 601L450 601L225 601L0 601Z" fill="#b5ddfc"></path><path d="M0 598L225 591L450 516L675 573L900 535L900 601L675 601L450 601L225 601L0 601Z" fill="#a7d7fe"></path></svg>